<?xml version="1.0" ?><!DOCTYPE svg  PUBLIC '-//W3C//DTD SVG 1.1//EN'  'http://www.w3.org/Graphics/SVG/1.1/DTD/svg11.dtd'><svg enable-background="new 0 0 64 64" height="64px" id="Icons" version="1.1" viewBox="0 0 64 64" width="64px" xml:space="preserve" xmlns="http://www.w3.org/2000/svg" xmlns:xlink="http://www.w3.org/1999/xlink"><g id="key"><g><path d="M18,40c-3.309,0-6,2.691-6,6s2.691,6,6,6s6-2.691,6-6S21.309,40,18,40z M18,51c-2.762,0-5-2.238-5-5    s2.238-5,5-5s5,2.238,5,5S20.762,51,18,51z" fill="#37474F"/><path d="M52.382,6H46L26.406,25.594c-1.447-0.387-2.938-0.581-4.426-0.581c-4.344-0.001-8.686,1.651-12.001,4.967    c-6.64,6.64-6.64,17.401,0,24.041C13.299,57.34,17.65,59,22,59c4.351,0,8.701-1.66,12.021-4.979    c4.242-4.242,5.761-10.165,4.582-15.623L43,34v-5h5l2-2v-6l2-2h6V7.452V6H52.382z M57,7v0.038L34.102,29.936    c-0.283,0.283-0.66,0.439-1.061,0.439s-0.777-0.156-1.061-0.439s-0.439-0.66-0.439-1.061s0.156-0.777,0.439-1.061L52.796,7H57z     M57,18h-5h-0.414l-0.293,0.293l-2,2L49,20.586V21v5.586L47.586,28H43h-1v1v4.586l-4.104,4.104l-0.386,0.386l0.115,0.532    c1.156,5.353-0.456,10.85-4.312,14.705C30.291,56.336,26.273,58,22,58s-8.291-1.664-11.313-4.687    c-6.238-6.238-6.238-16.389,0-22.627c3.015-3.015,7.025-4.675,11.294-4.674c1.408,0,2.811,0.185,4.168,0.547l0.557,0.149    l0.408-0.408L46.414,7h4.968L31.273,27.107c-0.977,0.976-0.977,2.559,0,3.535c0.488,0.488,1.128,0.732,1.768,0.732    s1.279-0.244,1.768-0.732L57,8.452V18z" fill="#37474F"/><g><path d="M22,55.5h-0.5v-1H22c6.893,0,12.5-5.607,12.5-12.5v-0.5h1V42C35.5,49.444,29.444,55.5,22,55.5z" fill="#37474F"/></g></g></g></svg>